# xmcd CD database file
#
# Track frame offsets:
#	150
#	24062
#	45477
#	72442
#	93999
#	121183
#	143435
#	160668
#	182066
#	206796
#	228977
#
# Disc length: 3309 seconds
#
# Revision: 0
# Processed by: cddbd v1.5.2PL0 Copyright (c) Steve Scherf et al.
# Submitted via: CDex 1.70beta2
#
DISCID=840ceb0b
DTITLE=native - Possibility 
DYEAR=2010
DGENRE=Jazz
TTITLE0=Possibility
TTITLE1=The Flyway
TTITLE2=Ma Poesie
TTITLE3=Line on Division
TTITLE4=Space Quest
TTITLE5=Dragon Jump
TTITLE6=Wild Card
TTITLE7=Love to You
TTITLE8=Nu-Island
TTITLE9=Imperfect
TTITLE10=Rolling-I
EXTD=YEAR: 2010
EXTT0=
EXTT1=
EXTT2=
EXTT3=
EXTT4=
EXTT5=
EXTT6=
EXTT7=
EXTT8=
EXTT9=
EXTT10=
PLAYORDER=
